<svg xmlns="http://www.w3.org/2000/svg" version="1.1" xmlns:xlink="http://www.w3.org/1999/xlink" xmlns:svgjs="http://svgjs.com/svgjs" width="1440" height="560" preserveAspectRatio="none" viewBox="0 0 1440 560"><g mask="url(&quot;#SvgjsMask1238&quot;)" fill="none"><path d="M796.0353166385258 193.64615253122577L773.3306907611809 127.70713108468047 685.7744715300354 194.73358062397062z" fill="rgba(28, 83, 142, 0.4)" class="triangle-float1"></path><path d="M621.57 485.14 a171.55 171.55 0 1 0 343.1 0 a171.55 171.55 0 1 0 -343.1 0z" fill="rgba(28, 83, 142, 0.4)" class="triangle-float1"></path><path d="M1361.254,527.175C1419.497,531.054,1469.422,489.154,1498.515,438.549C1527.506,388.122,1534.957,326.179,1505.716,275.896C1476.615,225.854,1419.138,201.828,1361.254,202.516C1304.647,203.189,1247.763,228.54,1222.622,279.262C1199.463,325.984,1226.934,376.642,1252.385,422.156C1278.761,469.324,1307.331,523.584,1361.254,527.175" fill="rgba(28, 83, 142, 0.4)" class="triangle-float2"></path><path d="M491.20574243910386 40.61921114424837L391.02307600074636 89.48156237565874 439.8854272321567 189.66422881401624 540.0680936705143 140.80187758260587z" fill="rgba(28, 83, 142, 0.4)" class="triangle-float1"></path><path d="M286.0225531421665 325.9525555685074L443.8978330685301 283.6500018074009 401.59527930742354 125.77472188103727 243.71999938105995 168.0772756421438z" fill="rgba(28, 83, 142, 0.4)" class="triangle-float3"></path><path d="M260.865,510.442C314.974,513.8,367.299,486.163,395.053,439.593C423.455,391.937,424.362,331.77,395.634,284.31C367.839,238.392,314.524,216.585,260.865,217.908C209.597,219.172,160.911,245.245,137.133,290.683C114.808,333.345,129.105,382.595,152.728,424.552C176.933,467.543,211.623,507.386,260.865,510.442" fill="rgba(28, 83, 142, 0.4)" class="triangle-float1"></path><path d="M834.5753442104416 209.50111677233565L922.0478437744546 220.2413892223825 932.7881162245014 132.76888965836952 845.3156166604884 122.02861720832263z" fill="rgba(28, 83, 142, 0.4)" class="triangle-float3"></path><path d="M1253.2523179128189 41.12970833253022L1333.9082653330747 99.84720775647983 1344.5365655163616 13.286649123286708z" fill="rgba(28, 83, 142, 0.4)" class="triangle-float1"></path><path d="M372.559,503.186C406.027,500.791,437.186,487.49,455.705,459.509C476.561,427.996,489.336,387.719,470.759,354.81C451.961,321.508,410.718,309.717,372.559,312.217C338.655,314.438,313.151,338.048,294.375,366.366C272.566,399.257,246.31,438.827,265.89,473.091C285.536,507.471,333.063,506.012,372.559,503.186" fill="rgba(28, 83, 142, 0.4)" class="triangle-float1"></path><path d="M948.547625653379 138.8337320595653L903.3557070222819-30.47004020431497 793.1673182017637 75.93764999373673z" fill="rgba(28, 83, 142, 0.4)" class="triangle-float3"></path></g><defs><mask id="SvgjsMask1238"><rect width="1440" height="560" fill="#ffffff"></rect></mask><style>
            @keyframes float1 {
                0%{transform: translate(0, 0)}
                50%{transform: translate(-10px, 0)}
                100%{transform: translate(0, 0)}
            }

            .triangle-float1 {
                animation: float1 5s infinite;
            }

            @keyframes float2 {
                0%{transform: translate(0, 0)}
                50%{transform: translate(-5px, -5px)}
                100%{transform: translate(0, 0)}
            }

            .triangle-float2 {
                animation: float2 4s infinite;
            }

            @keyframes float3 {
                0%{transform: translate(0, 0)}
                50%{transform: translate(0, -10px)}
                100%{transform: translate(0, 0)}
            }

            .triangle-float3 {
                animation: float3 6s infinite;
            }
        </style></defs></svg>