<svg xmlns="http://www.w3.org/2000/svg" version="1.1" xmlns:xlink="http://www.w3.org/1999/xlink" xmlns:svgjs="http://svgjs.com/svgjs" width="1440" height="560" preserveAspectRatio="none" viewBox="0 0 1440 560"><g mask="url(&quot;#SvgjsMask1058&quot;)" fill="none"><path d="M-46.44 402.94L-46.44 402.94" stroke="#132e65" stroke-width="1.5"></path><path d="M-46.44 402.94L48.74 350.7" stroke="#132e65" stroke-width="1.5"></path><path d="M-46.44 402.94L-62.84 524.12" stroke="#132e65" stroke-width="1.5"></path><path d="M-46.44 402.94L52.77 559.65" stroke="#132e65" stroke-width="1.5"></path><path d="M-46.44 402.94L232.29 406.38" stroke="#132e65" stroke-width="1.5"></path><path d="M-46.44 402.94L243.35 558.12" stroke="#132e65" stroke-width="1.5"></path><path d="M-62.84 524.12L-62.84 524.12" stroke="#132e65" stroke-width="1.5"></path><path d="M-62.84 524.12L52.77 559.65" stroke="#132e65" stroke-width="1.5"></path><path d="M-62.84 524.12L48.74 350.7" stroke="#132e65" stroke-width="1.5"></path><path d="M-62.84 524.12L243.35 558.12" stroke="#132e65" stroke-width="1.5"></path><path d="M-62.84 524.12L232.29 406.38" stroke="#132e65" stroke-width="1.5"></path><path d="M-62.84 524.12L261.25 666.47" stroke="#132e65" stroke-width="1.5"></path><path d="M48.74 350.7L48.74 350.7" stroke="#132e65" stroke-width="1.5"></path><path d="M48.74 350.7L232.29 406.38" stroke="#132e65" stroke-width="1.5"></path><path d="M48.74 350.7L52.77 559.65" stroke="#132e65" stroke-width="1.5"></path><path d="M52.77 559.65L52.77 559.65" stroke="#132e65" stroke-width="1.5"></path><path d="M52.77 559.65L243.35 558.12" stroke="#132e65" stroke-width="1.5"></path><path d="M52.77 559.65L261.25 666.47" stroke="#132e65" stroke-width="1.5"></path><path d="M52.77 559.65L232.29 406.38" stroke="#132e65" stroke-width="1.5"></path><path d="M232.29 406.38L232.29 406.38" stroke="#132e65" stroke-width="1.5"></path><path d="M232.29 406.38L361.36 343.97" stroke="#132e65" stroke-width="1.5"></path><path d="M232.29 406.38L243.35 558.12" stroke="#132e65" stroke-width="1.5"></path><path d="M243.35 558.12L243.35 558.12" stroke="#132e65" stroke-width="1.5"></path><path d="M243.35 558.12L261.25 666.47" stroke="#132e65" stroke-width="1.5"></path><path d="M243.35 558.12L380.11 553.81" stroke="#132e65" stroke-width="1.5"></path><path d="M243.35 558.12L395.19 702.56" stroke="#132e65" stroke-width="1.5"></path><path d="M261.25 666.47L261.25 666.47" stroke="#132e65" stroke-width="1.5"></path><path d="M261.25 666.47L395.19 702.56" stroke="#132e65" stroke-width="1.5"></path><path d="M261.25 666.47L380.11 553.81" stroke="#132e65" stroke-width="1.5"></path><path d="M361.36 343.97L361.36 343.97" stroke="#132e65" stroke-width="1.5"></path><path d="M361.36 343.97L522.01 363.88" stroke="#132e65" stroke-width="1.5"></path><path d="M361.36 343.97L380.11 553.81" stroke="#132e65" stroke-width="1.5"></path><path d="M380.11 553.81L380.11 553.81" stroke="#132e65" stroke-width="1.5"></path><path d="M380.11 553.81L493.12 521.31" stroke="#132e65" stroke-width="1.5"></path><path d="M395.19 702.56L395.19 702.56" stroke="#132e65" stroke-width="1.5"></path><path d="M395.19 702.56L525.84 656.44" stroke="#132e65" stroke-width="1.5"></path><path d="M395.19 702.56L380.11 553.81" stroke="#132e65" stroke-width="1.5"></path><path d="M395.19 702.56L493.12 521.31" stroke="#132e65" stroke-width="1.5"></path><path d="M522.01 363.88L522.01 363.88" stroke="#132e65" stroke-width="1.5"></path><path d="M522.01 363.88L493.12 521.31" stroke="#132e65" stroke-width="1.5"></path><path d="M522.01 363.88L700.44 349.86" stroke="#132e65" stroke-width="1.5"></path><path d="M522.01 363.88L641.07 560.9" stroke="#132e65" stroke-width="1.5"></path><path d="M522.01 363.88L380.11 553.81" stroke="#132e65" stroke-width="1.5"></path><path d="M522.01 363.88L810.38 373.9" stroke="#132e65" stroke-width="1.5"></path><path d="M493.12 521.31L493.12 521.31" stroke="#132e65" stroke-width="1.5"></path><path d="M525.84 656.44L525.84 656.44" stroke="#132e65" stroke-width="1.5"></path><path d="M525.84 656.44L493.12 521.31" stroke="#132e65" stroke-width="1.5"></path><path d="M525.84 656.44L641.07 560.9" stroke="#132e65" stroke-width="1.5"></path><path d="M525.84 656.44L380.11 553.81" stroke="#132e65" stroke-width="1.5"></path><path d="M525.84 656.44L708.05 678.02" stroke="#132e65" stroke-width="1.5"></path><path d="M525.84 656.44L261.25 666.47" stroke="#132e65" stroke-width="1.5"></path><path d="M700.44 349.86L700.44 349.86" stroke="#132e65" stroke-width="1.5"></path><path d="M700.44 349.86L810.38 373.9" stroke="#132e65" stroke-width="1.5"></path><path d="M700.44 349.86L821.34 250.33" stroke="#132e65" stroke-width="1.5"></path><path d="M700.44 349.86L641.07 560.9" stroke="#132e65" stroke-width="1.5"></path><path d="M700.44 349.86L493.12 521.31" stroke="#132e65" stroke-width="1.5"></path><path d="M700.44 349.86L846.03 110.28" stroke="#132e65" stroke-width="1.5"></path><path d="M641.07 560.9L641.07 560.9" stroke="#132e65" stroke-width="1.5"></path><path d="M641.07 560.9L708.05 678.02" stroke="#132e65" stroke-width="1.5"></path><path d="M641.07 560.9L493.12 521.31" stroke="#132e65" stroke-width="1.5"></path><path d="M708.05 678.02L708.05 678.02" stroke="#132e65" stroke-width="1.5"></path><path d="M708.05 678.02L823.24 712.29" stroke="#132e65" stroke-width="1.5"></path><path d="M708.05 678.02L493.12 521.31" stroke="#132e65" stroke-width="1.5"></path><path d="M846.03 110.28L846.03 110.28" stroke="#132e65" stroke-width="1.5"></path><path d="M846.03 110.28L821.34 250.33" stroke="#132e65" stroke-width="1.5"></path><path d="M846.03 110.28L992.43 43.63" stroke="#132e65" stroke-width="1.5"></path><path d="M846.03 110.28L963.88 242.28" stroke="#132e65" stroke-width="1.5"></path><path d="M821.34 250.33L821.34 250.33" stroke="#132e65" stroke-width="1.5"></path><path d="M821.34 250.33L810.38 373.9" stroke="#132e65" stroke-width="1.5"></path><path d="M821.34 250.33L963.88 242.28" stroke="#132e65" stroke-width="1.5"></path><path d="M821.34 250.33L985.62 361.78" stroke="#132e65" stroke-width="1.5"></path><path d="M821.34 250.33L992.43 43.63" stroke="#132e65" stroke-width="1.5"></path><path d="M810.38 373.9L810.38 373.9" stroke="#132e65" stroke-width="1.5"></path><path d="M810.38 373.9L985.62 361.78" stroke="#132e65" stroke-width="1.5"></path><path d="M810.38 373.9L963.88 242.28" stroke="#132e65" stroke-width="1.5"></path><path d="M810.38 373.9L1009.35 500.25" stroke="#132e65" stroke-width="1.5"></path><path d="M823.24 712.29L823.24 712.29" stroke="#132e65" stroke-width="1.5"></path><path d="M942.26 -63.86L942.26 -63.86" stroke="#132e65" stroke-width="1.5"></path><path d="M942.26 -63.86L992.43 43.63" stroke="#132e65" stroke-width="1.5"></path><path d="M942.26 -63.86L1131.76 -100.54" stroke="#132e65" stroke-width="1.5"></path><path d="M942.26 -63.86L846.03 110.28" stroke="#132e65" stroke-width="1.5"></path><path d="M942.26 -63.86L963.88 242.28" stroke="#132e65" stroke-width="1.5"></path><path d="M942.26 -63.86L1091.04 211.75" stroke="#132e65" stroke-width="1.5"></path><path d="M992.43 43.63L992.43 43.63" stroke="#132e65" stroke-width="1.5"></path><path d="M992.43 43.63L1091.04 211.75" stroke="#132e65" stroke-width="1.5"></path><path d="M992.43 43.63L1131.76 -100.54" stroke="#132e65" stroke-width="1.5"></path><path d="M992.43 43.63L963.88 242.28" stroke="#132e65" stroke-width="1.5"></path><path d="M963.88 242.28L963.88 242.28" stroke="#132e65" stroke-width="1.5"></path><path d="M963.88 242.28L985.62 361.78" stroke="#132e65" stroke-width="1.5"></path><path d="M963.88 242.28L1091.04 211.75" stroke="#132e65" stroke-width="1.5"></path><path d="M985.62 361.78L985.62 361.78" stroke="#132e65" stroke-width="1.5"></path><path d="M985.62 361.78L1009.35 500.25" stroke="#132e65" stroke-width="1.5"></path><path d="M985.62 361.78L1162.14 381.5" stroke="#132e65" stroke-width="1.5"></path><path d="M985.62 361.78L1091.04 211.75" stroke="#132e65" stroke-width="1.5"></path><path d="M1009.35 500.25L1009.35 500.25" stroke="#132e65" stroke-width="1.5"></path><path d="M1009.35 500.25L1117.38 499.36" stroke="#132e65" stroke-width="1.5"></path><path d="M1009.35 500.25L1162.14 381.5" stroke="#132e65" stroke-width="1.5"></path><path d="M1009.35 500.25L1120.35 708.94" stroke="#132e65" stroke-width="1.5"></path><path d="M1131.76 -100.54L1131.76 -100.54" stroke="#132e65" stroke-width="1.5"></path><path d="M1131.76 -100.54L1312.39 -89.56" stroke="#132e65" stroke-width="1.5"></path><path d="M1131.76 -100.54L1287.17 45.42" stroke="#132e65" stroke-width="1.5"></path><path d="M1131.76 -100.54L1430.7 -95.02" stroke="#132e65" stroke-width="1.5"></path><path d="M1131.76 -100.54L1091.04 211.75" stroke="#132e65" stroke-width="1.5"></path><path d="M1091.04 211.75L1091.04 211.75" stroke="#132e65" stroke-width="1.5"></path><path d="M1091.04 211.75L1272.71 207.56" stroke="#132e65" stroke-width="1.5"></path><path d="M1162.14 381.5L1162.14 381.5" stroke="#132e65" stroke-width="1.5"></path><path d="M1162.14 381.5L1117.38 499.36" stroke="#132e65" stroke-width="1.5"></path><path d="M1162.14 381.5L1301.17 348.03" stroke="#132e65" stroke-width="1.5"></path><path d="M1117.38 499.36L1117.38 499.36" stroke="#132e65" stroke-width="1.5"></path><path d="M1117.38 499.36L1295.7 493.8" stroke="#132e65" stroke-width="1.5"></path><path d="M1117.38 499.36L985.62 361.78" stroke="#132e65" stroke-width="1.5"></path><path d="M1117.38 499.36L1120.35 708.94" stroke="#132e65" stroke-width="1.5"></path><path d="M1117.38 499.36L1301.17 348.03" stroke="#132e65" stroke-width="1.5"></path><path d="M1120.35 708.94L1120.35 708.94" stroke="#132e65" stroke-width="1.5"></path><path d="M1120.35 708.94L1299.87 653.6" stroke="#132e65" stroke-width="1.5"></path><path d="M1120.35 708.94L1295.7 493.8" stroke="#132e65" stroke-width="1.5"></path><path d="M1120.35 708.94L823.24 712.29" stroke="#132e65" stroke-width="1.5"></path><path d="M1312.39 -89.56L1312.39 -89.56" stroke="#132e65" stroke-width="1.5"></path><path d="M1312.39 -89.56L1430.7 -95.02" stroke="#132e65" stroke-width="1.5"></path><path d="M1312.39 -89.56L1287.17 45.42" stroke="#132e65" stroke-width="1.5"></path><path d="M1312.39 -89.56L1430.93 41.84" stroke="#132e65" stroke-width="1.5"></path><path d="M1287.17 45.42L1287.17 45.42" stroke="#132e65" stroke-width="1.5"></path><path d="M1287.17 45.42L1430.93 41.84" stroke="#132e65" stroke-width="1.5"></path><path d="M1287.17 45.42L1272.71 207.56" stroke="#132e65" stroke-width="1.5"></path><path d="M1287.17 45.42L1430.7 -95.02" stroke="#132e65" stroke-width="1.5"></path><path d="M1272.71 207.56L1272.71 207.56" stroke="#132e65" stroke-width="1.5"></path><path d="M1272.71 207.56L1301.17 348.03" stroke="#132e65" stroke-width="1.5"></path><path d="M1272.71 207.56L1417.76 243.26" stroke="#132e65" stroke-width="1.5"></path><path d="M1272.71 207.56L1162.14 381.5" stroke="#132e65" stroke-width="1.5"></path><path d="M1272.71 207.56L1417.13 364.93" stroke="#132e65" stroke-width="1.5"></path><path d="M1301.17 348.03L1301.17 348.03" stroke="#132e65" stroke-width="1.5"></path><path d="M1301.17 348.03L1417.13 364.93" stroke="#132e65" stroke-width="1.5"></path><path d="M1301.17 348.03L1295.7 493.8" stroke="#132e65" stroke-width="1.5"></path><path d="M1295.7 493.8L1295.7 493.8" stroke="#132e65" stroke-width="1.5"></path><path d="M1295.7 493.8L1299.87 653.6" stroke="#132e65" stroke-width="1.5"></path><path d="M1299.87 653.6L1299.87 653.6" stroke="#132e65" stroke-width="1.5"></path><path d="M1299.87 653.6L1441.95 660.26" stroke="#132e65" stroke-width="1.5"></path><path d="M1299.87 653.6L1117.38 499.36" stroke="#132e65" stroke-width="1.5"></path><path d="M1430.7 -95.02L1430.7 -95.02" stroke="#132e65" stroke-width="1.5"></path><path d="M1430.7 -95.02L1430.93 41.84" stroke="#132e65" stroke-width="1.5"></path><path d="M1430.7 -95.02L1564.23 -50.43" stroke="#132e65" stroke-width="1.5"></path><path d="M1430.7 -95.02L1559.87 59.87" stroke="#132e65" stroke-width="1.5"></path><path d="M1430.93 41.84L1430.93 41.84" stroke="#132e65" stroke-width="1.5"></path><path d="M1430.93 41.84L1559.87 59.87" stroke="#132e65" stroke-width="1.5"></path><path d="M1417.76 243.26L1417.76 243.26" stroke="#132e65" stroke-width="1.5"></path><path d="M1417.76 243.26L1417.13 364.93" stroke="#132e65" stroke-width="1.5"></path><path d="M1417.76 243.26L1557.4 204.43" stroke="#132e65" stroke-width="1.5"></path><path d="M1417.76 243.26L1301.17 348.03" stroke="#132e65" stroke-width="1.5"></path><path d="M1417.76 243.26L1430.93 41.84" stroke="#132e65" stroke-width="1.5"></path><path d="M1417.13 364.93L1417.13 364.93" stroke="#132e65" stroke-width="1.5"></path><path d="M1417.13 364.93L1295.7 493.8" stroke="#132e65" stroke-width="1.5"></path><path d="M1441.95 660.26L1441.95 660.26" stroke="#132e65" stroke-width="1.5"></path><path d="M1441.95 660.26L1612.43 703.72" stroke="#132e65" stroke-width="1.5"></path><path d="M1441.95 660.26L1295.7 493.8" stroke="#132e65" stroke-width="1.5"></path><path d="M1441.95 660.26L1597.08 496.47" stroke="#132e65" stroke-width="1.5"></path><path d="M1441.95 660.26L1417.13 364.93" stroke="#132e65" stroke-width="1.5"></path><path d="M1564.23 -50.43L1564.23 -50.43" stroke="#132e65" stroke-width="1.5"></path><path d="M1564.23 -50.43L1559.87 59.87" stroke="#132e65" stroke-width="1.5"></path><path d="M1564.23 -50.43L1430.93 41.84" stroke="#132e65" stroke-width="1.5"></path><path d="M1564.23 -50.43L1312.39 -89.56" stroke="#132e65" stroke-width="1.5"></path><path d="M1564.23 -50.43L1557.4 204.43" stroke="#132e65" stroke-width="1.5"></path><path d="M1564.23 -50.43L1287.17 45.42" stroke="#132e65" stroke-width="1.5"></path><path d="M1559.87 59.87L1559.87 59.87" stroke="#132e65" stroke-width="1.5"></path><path d="M1559.87 59.87L1557.4 204.43" stroke="#132e65" stroke-width="1.5"></path><path d="M1557.4 204.43L1557.4 204.43" stroke="#132e65" stroke-width="1.5"></path><path d="M1557.4 204.43L1601.81 379.51" stroke="#132e65" stroke-width="1.5"></path><path d="M1601.81 379.51L1601.81 379.51" stroke="#132e65" stroke-width="1.5"></path><path d="M1601.81 379.51L1597.08 496.47" stroke="#132e65" stroke-width="1.5"></path><path d="M1601.81 379.51L1417.13 364.93" stroke="#132e65" stroke-width="1.5"></path><path d="M1601.81 379.51L1417.76 243.26" stroke="#132e65" stroke-width="1.5"></path><path d="M1601.81 379.51L1301.17 348.03" stroke="#132e65" stroke-width="1.5"></path><path d="M1597.08 496.47L1597.08 496.47" stroke="#132e65" stroke-width="1.5"></path><path d="M1597.08 496.47L1612.43 703.72" stroke="#132e65" stroke-width="1.5"></path><path d="M1612.43 703.72L1612.43 703.72" stroke="#132e65" stroke-width="1.5"></path><path d="M1612.43 703.72L1299.87 653.6" stroke="#132e65" stroke-width="1.5"></path><path d="M1612.43 703.72L1601.81 379.51" stroke="#132e65" stroke-width="1.5"></path><path d="M1612.43 703.72L1295.7 493.8" stroke="#132e65" stroke-width="1.5"></path><path d="M1612.43 703.72L1417.13 364.93" stroke="#132e65" stroke-width="1.5"></path><circle r="5" cx="-46.44" cy="402.94" fill="#132e65"></circle><circle r="5" cx="-62.84" cy="524.12" fill="#132e65"></circle><circle r="5" cx="48.74" cy="350.7" fill="#132e65"></circle><circle r="5" cx="52.77" cy="559.65" fill="#132e65"></circle><circle r="5" cx="232.29" cy="406.38" fill="#132e65"></circle><circle r="5" cx="243.35" cy="558.12" fill="#132e65"></circle><circle r="5" cx="261.25" cy="666.47" fill="#132e65"></circle><circle r="5" cx="361.36" cy="343.97" fill="#132e65"></circle><circle r="5" cx="380.11" cy="553.81" fill="#132e65"></circle><circle r="5" cx="395.19" cy="702.56" fill="#132e65"></circle><circle r="5" cx="522.01" cy="363.88" fill="#132e65"></circle><circle r="5" cx="493.12" cy="521.31" fill="#132e65"></circle><circle r="5" cx="525.84" cy="656.44" fill="#132e65"></circle><circle r="5" cx="700.44" cy="349.86" fill="#132e65"></circle><circle r="5" cx="641.07" cy="560.9" fill="#132e65"></circle><circle r="5" cx="708.05" cy="678.02" fill="#132e65"></circle><circle r="5" cx="846.03" cy="110.28" fill="#132e65"></circle><circle r="5" cx="821.34" cy="250.33" fill="#132e65"></circle><circle r="5" cx="810.38" cy="373.9" fill="#132e65"></circle><circle r="5" cx="823.24" cy="712.29" fill="#132e65"></circle><circle r="5" cx="942.26" cy="-63.86" fill="#132e65"></circle><circle r="5" cx="992.43" cy="43.63" fill="#132e65"></circle><circle r="5" cx="963.88" cy="242.28" fill="#132e65"></circle><circle r="5" cx="985.62" cy="361.78" fill="#132e65"></circle><circle r="5" cx="1009.35" cy="500.25" fill="#132e65"></circle><circle r="5" cx="1131.76" cy="-100.54" fill="#132e65"></circle><circle r="5" cx="1091.04" cy="211.75" fill="#132e65"></circle><circle r="5" cx="1162.14" cy="381.5" fill="#132e65"></circle><circle r="5" cx="1117.38" cy="499.36" fill="#132e65"></circle><circle r="5" cx="1120.35" cy="708.94" fill="#132e65"></circle><circle r="5" cx="1312.39" cy="-89.56" fill="#132e65"></circle><circle r="5" cx="1287.17" cy="45.42" fill="#132e65"></circle><circle r="5" cx="1272.71" cy="207.56" fill="#132e65"></circle><circle r="5" cx="1301.17" cy="348.03" fill="#132e65"></circle><circle r="5" cx="1295.7" cy="493.8" fill="#132e65"></circle><circle r="5" cx="1299.87" cy="653.6" fill="#132e65"></circle><circle r="5" cx="1430.7" cy="-95.02" fill="#132e65"></circle><circle r="5" cx="1430.93" cy="41.84" fill="#132e65"></circle><circle r="5" cx="1417.76" cy="243.26" fill="#132e65"></circle><circle r="5" cx="1417.13" cy="364.93" fill="#132e65"></circle><circle r="5" cx="1441.95" cy="660.26" fill="#132e65"></circle><circle r="5" cx="1564.23" cy="-50.43" fill="#132e65"></circle><circle r="5" cx="1559.87" cy="59.87" fill="#132e65"></circle><circle r="5" cx="1557.4" cy="204.43" fill="#132e65"></circle><circle r="5" cx="1601.81" cy="379.51" fill="#132e65"></circle><circle r="5" cx="1597.08" cy="496.47" fill="#132e65"></circle><circle r="5" cx="1612.43" cy="703.72" fill="#132e65"></circle><path d="M227.5 669.52L227.5 669.52" stroke="hsl(228.5, 77.2%, 51.5%)" stroke-width="1.5"></path><path d="M227.5 669.52L57.24 670.06" stroke="hsl(228.5, 77.2%, 51.5%)" stroke-width="1.5"></path><path d="M227.5 669.52L111.2 531.84" stroke="hsl(228.5, 77.2%, 51.5%)" stroke-width="1.5"></path><path d="M535.51 523.9L535.51 523.9" stroke="hsl(228.5, 77.2%, 51.5%)" stroke-width="1.5"></path><path d="M535.51 523.9L651.26 487.95" stroke="hsl(228.5, 77.2%, 51.5%)" stroke-width="1.5"></path><path d="M535.51 523.9L549.14 397.91" stroke="hsl(228.5, 77.2%, 51.5%)" stroke-width="1.5"></path><path d="M535.51 523.9L395.45 553.97" stroke="hsl(228.5, 77.2%, 51.5%)" stroke-width="1.5"></path><path d="M535.51 523.9L553.62 696.07" stroke="hsl(228.5, 77.2%, 51.5%)" stroke-width="1.5"></path><path d="M535.51 523.9L693.77 644.06" stroke="hsl(228.5, 77.2%, 51.5%)" stroke-width="1.5"></path><path d="M996.31 522L996.31 522" stroke="hsl(228.5, 77.2%, 51.5%)" stroke-width="1.5"></path><path d="M996.31 522L955.22 374.37" stroke="hsl(228.5, 77.2%, 51.5%)" stroke-width="1.5"></path><path d="M996.31 522L1158.76 520.68" stroke="hsl(228.5, 77.2%, 51.5%)" stroke-width="1.5"></path><path d="M996.31 522L1092.46 656.7" stroke="hsl(228.5, 77.2%, 51.5%)" stroke-width="1.5"></path><path d="M996.31 522L967.41 689.01" stroke="hsl(228.5, 77.2%, 51.5%)" stroke-width="1.5"></path><path d="M996.31 522L818.82 544.77" stroke="hsl(228.5, 77.2%, 51.5%)" stroke-width="1.5"></path><path d="M996.31 522L1114.08 357.92" stroke="hsl(228.5, 77.2%, 51.5%)" stroke-width="1.5"></path><path d="M1150.48 96.86L1150.48 96.86" stroke="hsl(228.5, 77.2%, 51.5%)" stroke-width="1.5"></path><path d="M1150.48 96.86L1111.04 206.62" stroke="hsl(228.5, 77.2%, 51.5%)" stroke-width="1.5"></path><path d="M1150.48 96.86L1277.65 41.14" stroke="hsl(228.5, 77.2%, 51.5%)" stroke-width="1.5"></path><path d="M1150.48 96.86L1259.64 217.64" stroke="hsl(228.5, 77.2%, 51.5%)" stroke-width="1.5"></path><path d="M1150.48 96.86L994.8 233.52" stroke="hsl(228.5, 77.2%, 51.5%)" stroke-width="1.5"></path><path d="M1253.75 397.79L1253.75 397.79" stroke="hsl(228.5, 77.2%, 51.5%)" stroke-width="1.5"></path><path d="M1253.75 397.79L1303.49 515.73" stroke="hsl(228.5, 77.2%, 51.5%)" stroke-width="1.5"></path><path d="M1253.75 397.79L1114.08 357.92" stroke="hsl(228.5, 77.2%, 51.5%)" stroke-width="1.5"></path><path d="M1253.75 397.79L1158.76 520.68" stroke="hsl(228.5, 77.2%, 51.5%)" stroke-width="1.5"></path><path d="M1415.74 -83.67L1415.74 -83.67" stroke="hsl(228.5, 77.2%, 51.5%)" stroke-width="1.5"></path><path d="M1415.74 -83.67L1280.29 -109.68" stroke="hsl(228.5, 77.2%, 51.5%)" stroke-width="1.5"></path><path d="M1415.74 -83.67L1591.14 -97.15" stroke="hsl(228.5, 77.2%, 51.5%)" stroke-width="1.5"></path><path d="M1415.74 -83.67L1398.63 99.33" stroke="hsl(228.5, 77.2%, 51.5%)" stroke-width="1.5"></path><path d="M1415.74 -83.67L1277.65 41.14" stroke="hsl(228.5, 77.2%, 51.5%)" stroke-width="1.5"></path><path d="M1425.01 201.89L1425.01 201.89" stroke="hsl(228.5, 77.2%, 51.5%)" stroke-width="1.5"></path><path d="M1425.01 201.89L1398.63 99.33" stroke="hsl(228.5, 77.2%, 51.5%)" stroke-width="1.5"></path><path d="M1425.01 201.89L1552.76 205" stroke="hsl(228.5, 77.2%, 51.5%)" stroke-width="1.5"></path><path d="M1425.01 201.89L1259.64 217.64" stroke="hsl(228.5, 77.2%, 51.5%)" stroke-width="1.5"></path><path d="M-77.08 559.99L-77.08 559.99" stroke="hsl(228.5, 77.2%, 51.5%)" stroke-width="1.5"></path><path d="M-77.08 559.99L-45.41 687.24" stroke="hsl(228.5, 77.2%, 51.5%)" stroke-width="1.5"></path><path d="M-77.08 559.99L57.24 670.06" stroke="hsl(228.5, 77.2%, 51.5%)" stroke-width="1.5"></path><path d="M-77.08 559.99L111.2 531.84" stroke="hsl(228.5, 77.2%, 51.5%)" stroke-width="1.5"></path><path d="M-77.08 559.99L227.5 669.52" stroke="hsl(228.5, 77.2%, 51.5%)" stroke-width="1.5"></path><path d="M-77.08 559.99L259.23 489.08" stroke="hsl(228.5, 77.2%, 51.5%)" stroke-width="1.5"></path><path d="M-45.41 687.24L-45.41 687.24" stroke="hsl(228.5, 77.2%, 51.5%)" stroke-width="1.5"></path><path d="M-45.41 687.24L57.24 670.06" stroke="hsl(228.5, 77.2%, 51.5%)" stroke-width="1.5"></path><path d="M-45.41 687.24L111.2 531.84" stroke="hsl(228.5, 77.2%, 51.5%)" stroke-width="1.5"></path><path d="M111.2 531.84L111.2 531.84" stroke="hsl(228.5, 77.2%, 51.5%)" stroke-width="1.5"></path><path d="M111.2 531.84L57.24 670.06" stroke="hsl(228.5, 77.2%, 51.5%)" stroke-width="1.5"></path><path d="M111.2 531.84L259.23 489.08" stroke="hsl(228.5, 77.2%, 51.5%)" stroke-width="1.5"></path><path d="M57.24 670.06L57.24 670.06" stroke="hsl(228.5, 77.2%, 51.5%)" stroke-width="1.5"></path><path d="M259.23 489.08L259.23 489.08" stroke="hsl(228.5, 77.2%, 51.5%)" stroke-width="1.5"></path><path d="M259.23 489.08L395.45 553.97" stroke="hsl(228.5, 77.2%, 51.5%)" stroke-width="1.5"></path><path d="M259.23 489.08L227.5 669.52" stroke="hsl(228.5, 77.2%, 51.5%)" stroke-width="1.5"></path><path d="M395.45 553.97L395.45 553.97" stroke="hsl(228.5, 77.2%, 51.5%)" stroke-width="1.5"></path><path d="M395.45 553.97L409.12 698.9" stroke="hsl(228.5, 77.2%, 51.5%)" stroke-width="1.5"></path><path d="M395.45 553.97L227.5 669.52" stroke="hsl(228.5, 77.2%, 51.5%)" stroke-width="1.5"></path><path d="M409.12 698.9L409.12 698.9" stroke="hsl(228.5, 77.2%, 51.5%)" stroke-width="1.5"></path><path d="M409.12 698.9L553.62 696.07" stroke="hsl(228.5, 77.2%, 51.5%)" stroke-width="1.5"></path><path d="M409.12 698.9L227.5 669.52" stroke="hsl(228.5, 77.2%, 51.5%)" stroke-width="1.5"></path><path d="M409.12 698.9L535.51 523.9" stroke="hsl(228.5, 77.2%, 51.5%)" stroke-width="1.5"></path><path d="M549.14 397.91L549.14 397.91" stroke="hsl(228.5, 77.2%, 51.5%)" stroke-width="1.5"></path><path d="M549.14 397.91L651.26 487.95" stroke="hsl(228.5, 77.2%, 51.5%)" stroke-width="1.5"></path><path d="M549.14 397.91L693.81 374.5" stroke="hsl(228.5, 77.2%, 51.5%)" stroke-width="1.5"></path><path d="M549.14 397.91L395.45 553.97" stroke="hsl(228.5, 77.2%, 51.5%)" stroke-width="1.5"></path><path d="M553.62 696.07L553.62 696.07" stroke="hsl(228.5, 77.2%, 51.5%)" stroke-width="1.5"></path><path d="M553.62 696.07L693.77 644.06" stroke="hsl(228.5, 77.2%, 51.5%)" stroke-width="1.5"></path><path d="M693.81 374.5L693.81 374.5" stroke="hsl(228.5, 77.2%, 51.5%)" stroke-width="1.5"></path><path d="M693.81 374.5L651.26 487.95" stroke="hsl(228.5, 77.2%, 51.5%)" stroke-width="1.5"></path><path d="M693.81 374.5L825.75 405.57" stroke="hsl(228.5, 77.2%, 51.5%)" stroke-width="1.5"></path><path d="M651.26 487.95L651.26 487.95" stroke="hsl(228.5, 77.2%, 51.5%)" stroke-width="1.5"></path><path d="M693.77 644.06L693.77 644.06" stroke="hsl(228.5, 77.2%, 51.5%)" stroke-width="1.5"></path><path d="M693.77 644.06L828.07 646.33" stroke="hsl(228.5, 77.2%, 51.5%)" stroke-width="1.5"></path><path d="M693.77 644.06L818.82 544.77" stroke="hsl(228.5, 77.2%, 51.5%)" stroke-width="1.5"></path><path d="M825.75 405.57L825.75 405.57" stroke="hsl(228.5, 77.2%, 51.5%)" stroke-width="1.5"></path><path d="M825.75 405.57L955.22 374.37" stroke="hsl(228.5, 77.2%, 51.5%)" stroke-width="1.5"></path><path d="M825.75 405.57L818.82 544.77" stroke="hsl(228.5, 77.2%, 51.5%)" stroke-width="1.5"></path><path d="M818.82 544.77L818.82 544.77" stroke="hsl(228.5, 77.2%, 51.5%)" stroke-width="1.5"></path><path d="M818.82 544.77L828.07 646.33" stroke="hsl(228.5, 77.2%, 51.5%)" stroke-width="1.5"></path><path d="M818.82 544.77L651.26 487.95" stroke="hsl(228.5, 77.2%, 51.5%)" stroke-width="1.5"></path><path d="M828.07 646.33L828.07 646.33" stroke="hsl(228.5, 77.2%, 51.5%)" stroke-width="1.5"></path><path d="M828.07 646.33L967.41 689.01" stroke="hsl(228.5, 77.2%, 51.5%)" stroke-width="1.5"></path><path d="M828.07 646.33L996.31 522" stroke="hsl(228.5, 77.2%, 51.5%)" stroke-width="1.5"></path><path d="M994.8 233.52L994.8 233.52" stroke="hsl(228.5, 77.2%, 51.5%)" stroke-width="1.5"></path><path d="M994.8 233.52L1111.04 206.62" stroke="hsl(228.5, 77.2%, 51.5%)" stroke-width="1.5"></path><path d="M994.8 233.52L955.22 374.37" stroke="hsl(228.5, 77.2%, 51.5%)" stroke-width="1.5"></path><path d="M994.8 233.52L1114.08 357.92" stroke="hsl(228.5, 77.2%, 51.5%)" stroke-width="1.5"></path><path d="M955.22 374.37L955.22 374.37" stroke="hsl(228.5, 77.2%, 51.5%)" stroke-width="1.5"></path><path d="M967.41 689.01L967.41 689.01" stroke="hsl(228.5, 77.2%, 51.5%)" stroke-width="1.5"></path><path d="M967.41 689.01L1092.46 656.7" stroke="hsl(228.5, 77.2%, 51.5%)" stroke-width="1.5"></path><path d="M967.41 689.01L818.82 544.77" stroke="hsl(228.5, 77.2%, 51.5%)" stroke-width="1.5"></path><path d="M967.41 689.01L1158.76 520.68" stroke="hsl(228.5, 77.2%, 51.5%)" stroke-width="1.5"></path><path d="M1111.04 206.62L1111.04 206.62" stroke="hsl(228.5, 77.2%, 51.5%)" stroke-width="1.5"></path><path d="M1114.08 357.92L1114.08 357.92" stroke="hsl(228.5, 77.2%, 51.5%)" stroke-width="1.5"></path><path d="M1114.08 357.92L1111.04 206.62" stroke="hsl(228.5, 77.2%, 51.5%)" stroke-width="1.5"></path><path d="M1158.76 520.68L1158.76 520.68" stroke="hsl(228.5, 77.2%, 51.5%)" stroke-width="1.5"></path><path d="M1158.76 520.68L1303.49 515.73" stroke="hsl(228.5, 77.2%, 51.5%)" stroke-width="1.5"></path><path d="M1158.76 520.68L1092.46 656.7" stroke="hsl(228.5, 77.2%, 51.5%)" stroke-width="1.5"></path><path d="M1092.46 656.7L1092.46 656.7" stroke="hsl(228.5, 77.2%, 51.5%)" stroke-width="1.5"></path><path d="M1280.29 -109.68L1280.29 -109.68" stroke="hsl(228.5, 77.2%, 51.5%)" stroke-width="1.5"></path><path d="M1280.29 -109.68L1277.65 41.14" stroke="hsl(228.5, 77.2%, 51.5%)" stroke-width="1.5"></path><path d="M1280.29 -109.68L1398.63 99.33" stroke="hsl(228.5, 77.2%, 51.5%)" stroke-width="1.5"></path><path d="M1277.65 41.14L1277.65 41.14" stroke="hsl(228.5, 77.2%, 51.5%)" stroke-width="1.5"></path><path d="M1277.65 41.14L1398.63 99.33" stroke="hsl(228.5, 77.2%, 51.5%)" stroke-width="1.5"></path><path d="M1259.64 217.64L1259.64 217.64" stroke="hsl(228.5, 77.2%, 51.5%)" stroke-width="1.5"></path><path d="M1259.64 217.64L1111.04 206.62" stroke="hsl(228.5, 77.2%, 51.5%)" stroke-width="1.5"></path><path d="M1259.64 217.64L1277.65 41.14" stroke="hsl(228.5, 77.2%, 51.5%)" stroke-width="1.5"></path><path d="M1259.64 217.64L1253.75 397.79" stroke="hsl(228.5, 77.2%, 51.5%)" stroke-width="1.5"></path><path d="M1303.49 515.73L1303.49 515.73" stroke="hsl(228.5, 77.2%, 51.5%)" stroke-width="1.5"></path><path d="M1303.49 515.73L1431.1 520.93" stroke="hsl(228.5, 77.2%, 51.5%)" stroke-width="1.5"></path><path d="M1303.49 515.73L1424.37 400.54" stroke="hsl(228.5, 77.2%, 51.5%)" stroke-width="1.5"></path><path d="M1398.63 99.33L1398.63 99.33" stroke="hsl(228.5, 77.2%, 51.5%)" stroke-width="1.5"></path><path d="M1398.63 99.33L1259.64 217.64" stroke="hsl(228.5, 77.2%, 51.5%)" stroke-width="1.5"></path><path d="M1424.37 400.54L1424.37 400.54" stroke="hsl(228.5, 77.2%, 51.5%)" stroke-width="1.5"></path><path d="M1424.37 400.54L1431.1 520.93" stroke="hsl(228.5, 77.2%, 51.5%)" stroke-width="1.5"></path><path d="M1424.37 400.54L1537.72 347.95" stroke="hsl(228.5, 77.2%, 51.5%)" stroke-width="1.5"></path><path d="M1431.1 520.93L1431.1 520.93" stroke="hsl(228.5, 77.2%, 51.5%)" stroke-width="1.5"></path><path d="M1431.1 520.93L1450.57 674.72" stroke="hsl(228.5, 77.2%, 51.5%)" stroke-width="1.5"></path><path d="M1431.1 520.93L1599.13 542.8" stroke="hsl(228.5, 77.2%, 51.5%)" stroke-width="1.5"></path><path d="M1431.1 520.93L1537.72 347.95" stroke="hsl(228.5, 77.2%, 51.5%)" stroke-width="1.5"></path><path d="M1431.1 520.93L1253.75 397.79" stroke="hsl(228.5, 77.2%, 51.5%)" stroke-width="1.5"></path><path d="M1450.57 674.72L1450.57 674.72" stroke="hsl(228.5, 77.2%, 51.5%)" stroke-width="1.5"></path><path d="M1450.57 674.72L1593.48 670.08" stroke="hsl(228.5, 77.2%, 51.5%)" stroke-width="1.5"></path><path d="M1591.14 -97.15L1591.14 -97.15" stroke="hsl(228.5, 77.2%, 51.5%)" stroke-width="1.5"></path><path d="M1591.14 -97.15L1610.72 75.97" stroke="hsl(228.5, 77.2%, 51.5%)" stroke-width="1.5"></path><path d="M1610.72 75.97L1610.72 75.97" stroke="hsl(228.5, 77.2%, 51.5%)" stroke-width="1.5"></path><path d="M1610.72 75.97L1552.76 205" stroke="hsl(228.5, 77.2%, 51.5%)" stroke-width="1.5"></path><path d="M1552.76 205L1552.76 205" stroke="hsl(228.5, 77.2%, 51.5%)" stroke-width="1.5"></path><path d="M1537.72 347.95L1537.72 347.95" stroke="hsl(228.5, 77.2%, 51.5%)" stroke-width="1.5"></path><path d="M1599.13 542.8L1599.13 542.8" stroke="hsl(228.5, 77.2%, 51.5%)" stroke-width="1.5"></path><path d="M1599.13 542.8L1593.48 670.08" stroke="hsl(228.5, 77.2%, 51.5%)" stroke-width="1.5"></path><path d="M1593.48 670.08L1593.48 670.08" stroke="hsl(228.5, 77.2%, 51.5%)" stroke-width="1.5"></path><circle r="25" cx="227.5" cy="669.52" fill="url(#SvgjsRadialGradient1059)"></circle><circle r="25" cx="535.51" cy="523.9" fill="url(#SvgjsRadialGradient1059)"></circle><circle r="25" cx="996.31" cy="522" fill="url(#SvgjsRadialGradient1059)"></circle><circle r="25" cx="1150.48" cy="96.86" fill="url(#SvgjsRadialGradient1059)"></circle><circle r="25" cx="1253.75" cy="397.79" fill="url(#SvgjsRadialGradient1059)"></circle><circle r="25" cx="1415.74" cy="-83.67" fill="url(#SvgjsRadialGradient1059)"></circle><circle r="25" cx="1425.01" cy="201.89" fill="url(#SvgjsRadialGradient1059)"></circle><circle r="5" cx="-77.08" cy="559.99" fill="#8b9ad9"></circle><circle r="5" cx="-45.41" cy="687.24" fill="#8b9ad9"></circle><circle r="5" cx="111.2" cy="531.84" fill="#8b9ad9"></circle><circle r="5" cx="57.24" cy="670.06" fill="#8b9ad9"></circle><circle r="5" cx="259.23" cy="489.08" fill="#8b9ad9"></circle><circle r="5" cx="395.45" cy="553.97" fill="#8b9ad9"></circle><circle r="5" cx="409.12" cy="698.9" fill="#8b9ad9"></circle><circle r="5" cx="549.14" cy="397.91" fill="#8b9ad9"></circle><circle r="5" cx="553.62" cy="696.07" fill="#8b9ad9"></circle><circle r="5" cx="693.81" cy="374.5" fill="#8b9ad9"></circle><circle r="5" cx="651.26" cy="487.95" fill="#8b9ad9"></circle><circle r="5" cx="693.77" cy="644.06" fill="#8b9ad9"></circle><circle r="5" cx="825.75" cy="405.57" fill="#8b9ad9"></circle><circle r="5" cx="818.82" cy="544.77" fill="#8b9ad9"></circle><circle r="5" cx="828.07" cy="646.33" fill="#8b9ad9"></circle><circle r="5" cx="994.8" cy="233.52" fill="#8b9ad9"></circle><circle r="5" cx="955.22" cy="374.37" fill="#8b9ad9"></circle><circle r="5" cx="967.41" cy="689.01" fill="#8b9ad9"></circle><circle r="5" cx="1111.04" cy="206.62" fill="#8b9ad9"></circle><circle r="5" cx="1114.08" cy="357.92" fill="#8b9ad9"></circle><circle r="5" cx="1158.76" cy="520.68" fill="#8b9ad9"></circle><circle r="5" cx="1092.46" cy="656.7" fill="#8b9ad9"></circle><circle r="5" cx="1280.29" cy="-109.68" fill="#8b9ad9"></circle><circle r="5" cx="1277.65" cy="41.14" fill="#8b9ad9"></circle><circle r="5" cx="1259.64" cy="217.64" fill="#8b9ad9"></circle><circle r="5" cx="1303.49" cy="515.73" fill="#8b9ad9"></circle><circle r="5" cx="1398.63" cy="99.33" fill="#8b9ad9"></circle><circle r="5" cx="1424.37" cy="400.54" fill="#8b9ad9"></circle><circle r="5" cx="1431.1" cy="520.93" fill="#8b9ad9"></circle><circle r="5" cx="1450.57" cy="674.72" fill="#8b9ad9"></circle><circle r="5" cx="1591.14" cy="-97.15" fill="#8b9ad9"></circle><circle r="5" cx="1610.72" cy="75.97" fill="#8b9ad9"></circle><circle r="5" cx="1552.76" cy="205" fill="#8b9ad9"></circle><circle r="5" cx="1537.72" cy="347.95" fill="#8b9ad9"></circle><circle r="5" cx="1599.13" cy="542.8" fill="#8b9ad9"></circle><circle r="5" cx="1593.48" cy="670.08" fill="#8b9ad9"></circle></g><defs><mask id="SvgjsMask1058"><rect width="1440" height="560" fill="#ffffff"></rect></mask><radialGradient id="SvgjsRadialGradient1059"><stop stop-color="#ffffff" offset="0.1"></stop><stop stop-color="#1735b3" offset="0.2"></stop><stop stop-color="rgba(23, 53, 179, 0)" offset="1"></stop></radialGradient></defs></svg>