<svg xmlns="http://www.w3.org/2000/svg" version="1.1" xmlns:xlink="http://www.w3.org/1999/xlink" xmlns:svgjs="http://svgjs.com/svgjs" width="1440" height="560" preserveAspectRatio="none" viewBox="0 0 1440 560"><g mask="url(&quot;#SvgjsMask1002&quot;)" fill="none"><path d="M-57.68 359.7L-57.68 359.7" stroke="#132e65" stroke-width="1.5"></path><path d="M-57.68 359.7L91.99 365.5" stroke="#132e65" stroke-width="1.5"></path><path d="M-57.68 359.7L-106.74 549.39" stroke="#132e65" stroke-width="1.5"></path><path d="M-57.68 359.7L73.06 510.47" stroke="#132e65" stroke-width="1.5"></path><path d="M-57.68 359.7L212.35 506.84" stroke="#132e65" stroke-width="1.5"></path><path d="M-57.68 359.7L249.02 394.8" stroke="#132e65" stroke-width="1.5"></path><path d="M-57.68 359.7L-102.84 667.63" stroke="#132e65" stroke-width="1.5"></path><path d="M-106.74 549.39L-106.74 549.39" stroke="#132e65" stroke-width="1.5"></path><path d="M-106.74 549.39L-102.84 667.63" stroke="#132e65" stroke-width="1.5"></path><path d="M-106.74 549.39L73.06 510.47" stroke="#132e65" stroke-width="1.5"></path><path d="M-102.84 667.63L-102.84 667.63" stroke="#132e65" stroke-width="1.5"></path><path d="M-102.84 667.63L56.51 662.77" stroke="#132e65" stroke-width="1.5"></path><path d="M-102.84 667.63L73.06 510.47" stroke="#132e65" stroke-width="1.5"></path><path d="M-102.84 667.63L214.27 687.32" stroke="#132e65" stroke-width="1.5"></path><path d="M-102.84 667.63L212.35 506.84" stroke="#132e65" stroke-width="1.5"></path><path d="M91.99 365.5L91.99 365.5" stroke="#132e65" stroke-width="1.5"></path><path d="M91.99 365.5L73.06 510.47" stroke="#132e65" stroke-width="1.5"></path><path d="M91.99 365.5L249.02 394.8" stroke="#132e65" stroke-width="1.5"></path><path d="M91.99 365.5L212.35 506.84" stroke="#132e65" stroke-width="1.5"></path><path d="M91.99 365.5L343.49 402.19" stroke="#132e65" stroke-width="1.5"></path><path d="M73.06 510.47L73.06 510.47" stroke="#132e65" stroke-width="1.5"></path><path d="M73.06 510.47L212.35 506.84" stroke="#132e65" stroke-width="1.5"></path><path d="M73.06 510.47L56.51 662.77" stroke="#132e65" stroke-width="1.5"></path><path d="M56.51 662.77L56.51 662.77" stroke="#132e65" stroke-width="1.5"></path><path d="M249.02 394.8L249.02 394.8" stroke="#132e65" stroke-width="1.5"></path><path d="M249.02 394.8L343.49 402.19" stroke="#132e65" stroke-width="1.5"></path><path d="M249.02 394.8L212.35 506.84" stroke="#132e65" stroke-width="1.5"></path><path d="M249.02 394.8L353.9 501.8" stroke="#132e65" stroke-width="1.5"></path><path d="M212.35 506.84L212.35 506.84" stroke="#132e65" stroke-width="1.5"></path><path d="M212.35 506.84L353.9 501.8" stroke="#132e65" stroke-width="1.5"></path><path d="M212.35 506.84L343.49 402.19" stroke="#132e65" stroke-width="1.5"></path><path d="M214.27 687.32L214.27 687.32" stroke="#132e65" stroke-width="1.5"></path><path d="M214.27 687.32L56.51 662.77" stroke="#132e65" stroke-width="1.5"></path><path d="M214.27 687.32L371.3 648.46" stroke="#132e65" stroke-width="1.5"></path><path d="M343.49 402.19L343.49 402.19" stroke="#132e65" stroke-width="1.5"></path><path d="M343.49 402.19L353.9 501.8" stroke="#132e65" stroke-width="1.5"></path><path d="M343.49 402.19L503.31 400.15" stroke="#132e65" stroke-width="1.5"></path><path d="M353.9 501.8L353.9 501.8" stroke="#132e65" stroke-width="1.5"></path><path d="M353.9 501.8L371.3 648.46" stroke="#132e65" stroke-width="1.5"></path><path d="M353.9 501.8L514.23 546" stroke="#132e65" stroke-width="1.5"></path><path d="M371.3 648.46L371.3 648.46" stroke="#132e65" stroke-width="1.5"></path><path d="M371.3 648.46L516.32 694.38" stroke="#132e65" stroke-width="1.5"></path><path d="M371.3 648.46L514.23 546" stroke="#132e65" stroke-width="1.5"></path><path d="M371.3 648.46L212.35 506.84" stroke="#132e65" stroke-width="1.5"></path><path d="M371.3 648.46L343.49 402.19" stroke="#132e65" stroke-width="1.5"></path><path d="M503.31 400.15L503.31 400.15" stroke="#132e65" stroke-width="1.5"></path><path d="M503.31 400.15L514.23 546" stroke="#132e65" stroke-width="1.5"></path><path d="M503.31 400.15L353.9 501.8" stroke="#132e65" stroke-width="1.5"></path><path d="M514.23 546L514.23 546" stroke="#132e65" stroke-width="1.5"></path><path d="M514.23 546L516.32 694.38" stroke="#132e65" stroke-width="1.5"></path><path d="M514.23 546L666.17 562.34" stroke="#132e65" stroke-width="1.5"></path><path d="M516.32 694.38L516.32 694.38" stroke="#132e65" stroke-width="1.5"></path><path d="M516.32 694.38L674.13 690.94" stroke="#132e65" stroke-width="1.5"></path><path d="M516.32 694.38L666.17 562.34" stroke="#132e65" stroke-width="1.5"></path><path d="M516.32 694.38L353.9 501.8" stroke="#132e65" stroke-width="1.5"></path><path d="M516.32 694.38L503.31 400.15" stroke="#132e65" stroke-width="1.5"></path><path d="M692.47 348.88L692.47 348.88" stroke="#132e65" stroke-width="1.5"></path><path d="M692.47 348.88L817.66 364.83" stroke="#132e65" stroke-width="1.5"></path><path d="M666.17 562.34L666.17 562.34" stroke="#132e65" stroke-width="1.5"></path><path d="M666.17 562.34L674.13 690.94" stroke="#132e65" stroke-width="1.5"></path><path d="M666.17 562.34L838.18 523.01" stroke="#132e65" stroke-width="1.5"></path><path d="M674.13 690.94L674.13 690.94" stroke="#132e65" stroke-width="1.5"></path><path d="M674.13 690.94L811.84 700.67" stroke="#132e65" stroke-width="1.5"></path><path d="M674.13 690.94L514.23 546" stroke="#132e65" stroke-width="1.5"></path><path d="M674.13 690.94L838.18 523.01" stroke="#132e65" stroke-width="1.5"></path><path d="M674.13 690.94L371.3 648.46" stroke="#132e65" stroke-width="1.5"></path><path d="M813.56 235.71L813.56 235.71" stroke="#132e65" stroke-width="1.5"></path><path d="M813.56 235.71L817.66 364.83" stroke="#132e65" stroke-width="1.5"></path><path d="M813.56 235.71L692.47 348.88" stroke="#132e65" stroke-width="1.5"></path><path d="M813.56 235.71L981.14 239.29" stroke="#132e65" stroke-width="1.5"></path><path d="M813.56 235.71L995.77 352.26" stroke="#132e65" stroke-width="1.5"></path><path d="M817.66 364.83L817.66 364.83" stroke="#132e65" stroke-width="1.5"></path><path d="M817.66 364.83L838.18 523.01" stroke="#132e65" stroke-width="1.5"></path><path d="M817.66 364.83L995.77 352.26" stroke="#132e65" stroke-width="1.5"></path><path d="M817.66 364.83L950.25 509.35" stroke="#132e65" stroke-width="1.5"></path><path d="M838.18 523.01L838.18 523.01" stroke="#132e65" stroke-width="1.5"></path><path d="M838.18 523.01L950.25 509.35" stroke="#132e65" stroke-width="1.5"></path><path d="M811.84 700.67L811.84 700.67" stroke="#132e65" stroke-width="1.5"></path><path d="M811.84 700.67L838.18 523.01" stroke="#132e65" stroke-width="1.5"></path><path d="M972.56 -96.09L972.56 -96.09" stroke="#132e65" stroke-width="1.5"></path><path d="M972.56 -96.09L1119.05 -110.82" stroke="#132e65" stroke-width="1.5"></path><path d="M992.28 88.99L992.28 88.99" stroke="#132e65" stroke-width="1.5"></path><path d="M992.28 88.99L981.14 239.29" stroke="#132e65" stroke-width="1.5"></path><path d="M981.14 239.29L981.14 239.29" stroke="#132e65" stroke-width="1.5"></path><path d="M981.14 239.29L995.77 352.26" stroke="#132e65" stroke-width="1.5"></path><path d="M981.14 239.29L1136.73 209.61" stroke="#132e65" stroke-width="1.5"></path><path d="M995.77 352.26L995.77 352.26" stroke="#132e65" stroke-width="1.5"></path><path d="M995.77 352.26L1133.93 399.03" stroke="#132e65" stroke-width="1.5"></path><path d="M995.77 352.26L950.25 509.35" stroke="#132e65" stroke-width="1.5"></path><path d="M950.25 509.35L950.25 509.35" stroke="#132e65" stroke-width="1.5"></path><path d="M950.25 509.35L1096.56 552.41" stroke="#132e65" stroke-width="1.5"></path><path d="M1119.05 -110.82L1119.05 -110.82" stroke="#132e65" stroke-width="1.5"></path><path d="M1119.05 -110.82L1273.74 -101.32" stroke="#132e65" stroke-width="1.5"></path><path d="M1119.05 -110.82L992.28 88.99" stroke="#132e65" stroke-width="1.5"></path><path d="M1136.73 209.61L1136.73 209.61" stroke="#132e65" stroke-width="1.5"></path><path d="M1136.73 209.61L1237.85 217.4" stroke="#132e65" stroke-width="1.5"></path><path d="M1133.93 399.03L1133.93 399.03" stroke="#132e65" stroke-width="1.5"></path><path d="M1133.93 399.03L1249.12 399.45" stroke="#132e65" stroke-width="1.5"></path><path d="M1133.93 399.03L1096.56 552.41" stroke="#132e65" stroke-width="1.5"></path><path d="M1133.93 399.03L1136.73 209.61" stroke="#132e65" stroke-width="1.5"></path><path d="M1133.93 399.03L1279.63 542.74" stroke="#132e65" stroke-width="1.5"></path><path d="M1133.93 399.03L1237.85 217.4" stroke="#132e65" stroke-width="1.5"></path><path d="M1096.56 552.41L1096.56 552.41" stroke="#132e65" stroke-width="1.5"></path><path d="M1273.74 -101.32L1273.74 -101.32" stroke="#132e65" stroke-width="1.5"></path><path d="M1273.74 -101.32L1392.47 -92.37" stroke="#132e65" stroke-width="1.5"></path><path d="M1273.74 -101.32L1266.37 105.75" stroke="#132e65" stroke-width="1.5"></path><path d="M1273.74 -101.32L1393.6 90.93" stroke="#132e65" stroke-width="1.5"></path><path d="M1273.74 -101.32L972.56 -96.09" stroke="#132e65" stroke-width="1.5"></path><path d="M1266.37 105.75L1266.37 105.75" stroke="#132e65" stroke-width="1.5"></path><path d="M1266.37 105.75L1237.85 217.4" stroke="#132e65" stroke-width="1.5"></path><path d="M1266.37 105.75L1393.6 90.93" stroke="#132e65" stroke-width="1.5"></path><path d="M1266.37 105.75L1136.73 209.61" stroke="#132e65" stroke-width="1.5"></path><path d="M1266.37 105.75L1392.47 -92.37" stroke="#132e65" stroke-width="1.5"></path><path d="M1266.37 105.75L1119.05 -110.82" stroke="#132e65" stroke-width="1.5"></path><path d="M1237.85 217.4L1237.85 217.4" stroke="#132e65" stroke-width="1.5"></path><path d="M1237.85 217.4L1249.12 399.45" stroke="#132e65" stroke-width="1.5"></path><path d="M1237.85 217.4L1393.6 90.93" stroke="#132e65" stroke-width="1.5"></path><path d="M1249.12 399.45L1249.12 399.45" stroke="#132e65" stroke-width="1.5"></path><path d="M1249.12 399.45L1279.63 542.74" stroke="#132e65" stroke-width="1.5"></path><path d="M1249.12 399.45L1402.78 412.17" stroke="#132e65" stroke-width="1.5"></path><path d="M1249.12 399.45L1096.56 552.41" stroke="#132e65" stroke-width="1.5"></path><path d="M1279.63 542.74L1279.63 542.74" stroke="#132e65" stroke-width="1.5"></path><path d="M1279.63 542.74L1403.01 551.58" stroke="#132e65" stroke-width="1.5"></path><path d="M1279.63 542.74L1256.13 677.2" stroke="#132e65" stroke-width="1.5"></path><path d="M1279.63 542.74L1402.78 412.17" stroke="#132e65" stroke-width="1.5"></path><path d="M1279.63 542.74L1096.56 552.41" stroke="#132e65" stroke-width="1.5"></path><path d="M1279.63 542.74L1440.24 646.57" stroke="#132e65" stroke-width="1.5"></path><path d="M1256.13 677.2L1256.13 677.2" stroke="#132e65" stroke-width="1.5"></path><path d="M1256.13 677.2L1440.24 646.57" stroke="#132e65" stroke-width="1.5"></path><path d="M1256.13 677.2L1403.01 551.58" stroke="#132e65" stroke-width="1.5"></path><path d="M1256.13 677.2L1096.56 552.41" stroke="#132e65" stroke-width="1.5"></path><path d="M1256.13 677.2L1249.12 399.45" stroke="#132e65" stroke-width="1.5"></path><path d="M1256.13 677.2L1402.78 412.17" stroke="#132e65" stroke-width="1.5"></path><path d="M1392.47 -92.37L1392.47 -92.37" stroke="#132e65" stroke-width="1.5"></path><path d="M1392.47 -92.37L1393.6 90.93" stroke="#132e65" stroke-width="1.5"></path><path d="M1392.47 -92.37L1584.53 -80.93" stroke="#132e65" stroke-width="1.5"></path><path d="M1393.6 90.93L1393.6 90.93" stroke="#132e65" stroke-width="1.5"></path><path d="M1393.6 90.93L1562.59 98.49" stroke="#132e65" stroke-width="1.5"></path><path d="M1393.6 90.93L1557.15 247.51" stroke="#132e65" stroke-width="1.5"></path><path d="M1402.78 412.17L1402.78 412.17" stroke="#132e65" stroke-width="1.5"></path><path d="M1402.78 412.17L1403.01 551.58" stroke="#132e65" stroke-width="1.5"></path><path d="M1402.78 412.17L1569.19 501.34" stroke="#132e65" stroke-width="1.5"></path><path d="M1402.78 412.17L1601.41 409.95" stroke="#132e65" stroke-width="1.5"></path><path d="M1403.01 551.58L1403.01 551.58" stroke="#132e65" stroke-width="1.5"></path><path d="M1403.01 551.58L1440.24 646.57" stroke="#132e65" stroke-width="1.5"></path><path d="M1440.24 646.57L1440.24 646.57" stroke="#132e65" stroke-width="1.5"></path><path d="M1440.24 646.57L1605.17 655.13" stroke="#132e65" stroke-width="1.5"></path><path d="M1584.53 -80.93L1584.53 -80.93" stroke="#132e65" stroke-width="1.5"></path><path d="M1584.53 -80.93L1562.59 98.49" stroke="#132e65" stroke-width="1.5"></path><path d="M1584.53 -80.93L1393.6 90.93" stroke="#132e65" stroke-width="1.5"></path><path d="M1584.53 -80.93L1273.74 -101.32" stroke="#132e65" stroke-width="1.5"></path><path d="M1584.53 -80.93L1557.15 247.51" stroke="#132e65" stroke-width="1.5"></path><path d="M1562.59 98.49L1562.59 98.49" stroke="#132e65" stroke-width="1.5"></path><path d="M1562.59 98.49L1557.15 247.51" stroke="#132e65" stroke-width="1.5"></path><path d="M1557.15 247.51L1557.15 247.51" stroke="#132e65" stroke-width="1.5"></path><path d="M1601.41 409.95L1601.41 409.95" stroke="#132e65" stroke-width="1.5"></path><path d="M1601.41 409.95L1569.19 501.34" stroke="#132e65" stroke-width="1.5"></path><path d="M1601.41 409.95L1557.15 247.51" stroke="#132e65" stroke-width="1.5"></path><path d="M1601.41 409.95L1403.01 551.58" stroke="#132e65" stroke-width="1.5"></path><path d="M1601.41 409.95L1605.17 655.13" stroke="#132e65" stroke-width="1.5"></path><path d="M1601.41 409.95L1440.24 646.57" stroke="#132e65" stroke-width="1.5"></path><path d="M1569.19 501.34L1569.19 501.34" stroke="#132e65" stroke-width="1.5"></path><path d="M1569.19 501.34L1605.17 655.13" stroke="#132e65" stroke-width="1.5"></path><path d="M1569.19 501.34L1403.01 551.58" stroke="#132e65" stroke-width="1.5"></path><path d="M1605.17 655.13L1605.17 655.13" stroke="#132e65" stroke-width="1.5"></path><path d="M1605.17 655.13L1403.01 551.58" stroke="#132e65" stroke-width="1.5"></path><circle r="5" cx="-57.68" cy="359.7" fill="#132e65"></circle><circle r="5" cx="-106.74" cy="549.39" fill="#132e65"></circle><circle r="5" cx="-102.84" cy="667.63" fill="#132e65"></circle><circle r="5" cx="91.99" cy="365.5" fill="#132e65"></circle><circle r="5" cx="73.06" cy="510.47" fill="#132e65"></circle><circle r="5" cx="56.51" cy="662.77" fill="#132e65"></circle><circle r="5" cx="249.02" cy="394.8" fill="#132e65"></circle><circle r="5" cx="212.35" cy="506.84" fill="#132e65"></circle><circle r="5" cx="214.27" cy="687.32" fill="#132e65"></circle><circle r="5" cx="343.49" cy="402.19" fill="#132e65"></circle><circle r="5" cx="353.9" cy="501.8" fill="#132e65"></circle><circle r="5" cx="371.3" cy="648.46" fill="#132e65"></circle><circle r="5" cx="503.31" cy="400.15" fill="#132e65"></circle><circle r="5" cx="514.23" cy="546" fill="#132e65"></circle><circle r="5" cx="516.32" cy="694.38" fill="#132e65"></circle><circle r="5" cx="692.47" cy="348.88" fill="#132e65"></circle><circle r="5" cx="666.17" cy="562.34" fill="#132e65"></circle><circle r="5" cx="674.13" cy="690.94" fill="#132e65"></circle><circle r="5" cx="813.56" cy="235.71" fill="#132e65"></circle><circle r="5" cx="817.66" cy="364.83" fill="#132e65"></circle><circle r="5" cx="838.18" cy="523.01" fill="#132e65"></circle><circle r="5" cx="811.84" cy="700.67" fill="#132e65"></circle><circle r="5" cx="972.56" cy="-96.09" fill="#132e65"></circle><circle r="5" cx="992.28" cy="88.99" fill="#132e65"></circle><circle r="5" cx="981.14" cy="239.29" fill="#132e65"></circle><circle r="5" cx="995.77" cy="352.26" fill="#132e65"></circle><circle r="5" cx="950.25" cy="509.35" fill="#132e65"></circle><circle r="5" cx="1119.05" cy="-110.82" fill="#132e65"></circle><circle r="5" cx="1136.73" cy="209.61" fill="#132e65"></circle><circle r="5" cx="1133.93" cy="399.03" fill="#132e65"></circle><circle r="5" cx="1096.56" cy="552.41" fill="#132e65"></circle><circle r="5" cx="1273.74" cy="-101.32" fill="#132e65"></circle><circle r="5" cx="1266.37" cy="105.75" fill="#132e65"></circle><circle r="5" cx="1237.85" cy="217.4" fill="#132e65"></circle><circle r="5" cx="1249.12" cy="399.45" fill="#132e65"></circle><circle r="5" cx="1279.63" cy="542.74" fill="#132e65"></circle><circle r="5" cx="1256.13" cy="677.2" fill="#132e65"></circle><circle r="5" cx="1392.47" cy="-92.37" fill="#132e65"></circle><circle r="5" cx="1393.6" cy="90.93" fill="#132e65"></circle><circle r="5" cx="1402.78" cy="412.17" fill="#132e65"></circle><circle r="5" cx="1403.01" cy="551.58" fill="#132e65"></circle><circle r="5" cx="1440.24" cy="646.57" fill="#132e65"></circle><circle r="5" cx="1584.53" cy="-80.93" fill="#132e65"></circle><circle r="5" cx="1562.59" cy="98.49" fill="#132e65"></circle><circle r="5" cx="1557.15" cy="247.51" fill="#132e65"></circle><circle r="5" cx="1601.41" cy="409.95" fill="#132e65"></circle><circle r="5" cx="1569.19" cy="501.34" fill="#132e65"></circle><circle r="5" cx="1605.17" cy="655.13" fill="#132e65"></circle><path d="M-70.33 703.15L-70.33 703.15" stroke="hsl(228.5, 77.2%, 51.5%)" stroke-width="1.5"></path><path d="M-70.33 703.15L-91.93 554.23" stroke="hsl(228.5, 77.2%, 51.5%)" stroke-width="1.5"></path><path d="M-70.33 703.15L95.59 655.12" stroke="hsl(228.5, 77.2%, 51.5%)" stroke-width="1.5"></path><path d="M95.59 655.12L95.59 655.12" stroke="hsl(228.5, 77.2%, 51.5%)" stroke-width="1.5"></path><path d="M95.59 655.12L218.29 644.4" stroke="hsl(228.5, 77.2%, 51.5%)" stroke-width="1.5"></path><path d="M95.59 655.12L70.33 515.25" stroke="hsl(228.5, 77.2%, 51.5%)" stroke-width="1.5"></path><path d="M95.59 655.12L254.39 561.49" stroke="hsl(228.5, 77.2%, 51.5%)" stroke-width="1.5"></path><path d="M684.02 406.94L684.02 406.94" stroke="hsl(228.5, 77.2%, 51.5%)" stroke-width="1.5"></path><path d="M684.02 406.94L652.52 526.63" stroke="hsl(228.5, 77.2%, 51.5%)" stroke-width="1.5"></path><path d="M684.02 406.94L801.21 338.56" stroke="hsl(228.5, 77.2%, 51.5%)" stroke-width="1.5"></path><path d="M684.02 406.94L799.95 544.64" stroke="hsl(228.5, 77.2%, 51.5%)" stroke-width="1.5"></path><path d="M988.83 510.22L988.83 510.22" stroke="hsl(228.5, 77.2%, 51.5%)" stroke-width="1.5"></path><path d="M988.83 510.22L1089.44 519.88" stroke="hsl(228.5, 77.2%, 51.5%)" stroke-width="1.5"></path><path d="M988.83 510.22L799.95 544.64" stroke="hsl(228.5, 77.2%, 51.5%)" stroke-width="1.5"></path><path d="M988.83 510.22L949.44 698.46" stroke="hsl(228.5, 77.2%, 51.5%)" stroke-width="1.5"></path><path d="M988.83 510.22L1123.57 655.12" stroke="hsl(228.5, 77.2%, 51.5%)" stroke-width="1.5"></path><path d="M988.83 510.22L835.76 660.88" stroke="hsl(228.5, 77.2%, 51.5%)" stroke-width="1.5"></path><path d="M988.83 510.22L1147.79 364.09" stroke="hsl(228.5, 77.2%, 51.5%)" stroke-width="1.5"></path><path d="M949.44 698.46L949.44 698.46" stroke="hsl(228.5, 77.2%, 51.5%)" stroke-width="1.5"></path><path d="M949.44 698.46L835.76 660.88" stroke="hsl(228.5, 77.2%, 51.5%)" stroke-width="1.5"></path><path d="M949.44 698.46L1123.57 655.12" stroke="hsl(228.5, 77.2%, 51.5%)" stroke-width="1.5"></path><path d="M1414.54 393.28L1414.54 393.28" stroke="hsl(228.5, 77.2%, 51.5%)" stroke-width="1.5"></path><path d="M1414.54 393.28L1431.74 526.39" stroke="hsl(228.5, 77.2%, 51.5%)" stroke-width="1.5"></path><path d="M1414.54 393.28L1388.88 233.88" stroke="hsl(228.5, 77.2%, 51.5%)" stroke-width="1.5"></path><path d="M1431.74 526.39L1431.74 526.39" stroke="hsl(228.5, 77.2%, 51.5%)" stroke-width="1.5"></path><path d="M1431.74 526.39L1436.36 638.93" stroke="hsl(228.5, 77.2%, 51.5%)" stroke-width="1.5"></path><path d="M1431.74 526.39L1552.53 526.6" stroke="hsl(228.5, 77.2%, 51.5%)" stroke-width="1.5"></path><path d="M1431.74 526.39L1307.45 555.68" stroke="hsl(228.5, 77.2%, 51.5%)" stroke-width="1.5"></path><path d="M1431.74 526.39L1559.29 663.95" stroke="hsl(228.5, 77.2%, 51.5%)" stroke-width="1.5"></path><path d="M1436.36 638.93L1436.36 638.93" stroke="hsl(228.5, 77.2%, 51.5%)" stroke-width="1.5"></path><path d="M1436.36 638.93L1559.29 663.95" stroke="hsl(228.5, 77.2%, 51.5%)" stroke-width="1.5"></path><path d="M1436.36 638.93L1307.45 555.68" stroke="hsl(228.5, 77.2%, 51.5%)" stroke-width="1.5"></path><path d="M1436.36 638.93L1552.53 526.6" stroke="hsl(228.5, 77.2%, 51.5%)" stroke-width="1.5"></path><path d="M1436.36 638.93L1414.54 393.28" stroke="hsl(228.5, 77.2%, 51.5%)" stroke-width="1.5"></path><path d="M1563.58 66.47L1563.58 66.47" stroke="hsl(228.5, 77.2%, 51.5%)" stroke-width="1.5"></path><path d="M1563.58 66.47L1548.44 -47.15" stroke="hsl(228.5, 77.2%, 51.5%)" stroke-width="1.5"></path><path d="M1563.58 66.47L1574.1 226.64" stroke="hsl(228.5, 77.2%, 51.5%)" stroke-width="1.5"></path><path d="M1563.58 66.47L1458.93 -91.92" stroke="hsl(228.5, 77.2%, 51.5%)" stroke-width="1.5"></path><path d="M1608.03 408.94L1608.03 408.94" stroke="hsl(228.5, 77.2%, 51.5%)" stroke-width="1.5"></path><path d="M1608.03 408.94L1552.53 526.6" stroke="hsl(228.5, 77.2%, 51.5%)" stroke-width="1.5"></path><path d="M1608.03 408.94L1574.1 226.64" stroke="hsl(228.5, 77.2%, 51.5%)" stroke-width="1.5"></path><path d="M-91.93 554.23L-91.93 554.23" stroke="hsl(228.5, 77.2%, 51.5%)" stroke-width="1.5"></path><path d="M-91.93 554.23L70.33 515.25" stroke="hsl(228.5, 77.2%, 51.5%)" stroke-width="1.5"></path><path d="M-91.93 554.23L95.59 655.12" stroke="hsl(228.5, 77.2%, 51.5%)" stroke-width="1.5"></path><path d="M-91.93 554.23L218.29 644.4" stroke="hsl(228.5, 77.2%, 51.5%)" stroke-width="1.5"></path><path d="M-91.93 554.23L254.39 561.49" stroke="hsl(228.5, 77.2%, 51.5%)" stroke-width="1.5"></path><path d="M-91.93 554.23L384.58 494.06" stroke="hsl(228.5, 77.2%, 51.5%)" stroke-width="1.5"></path><path d="M70.33 515.25L70.33 515.25" stroke="hsl(228.5, 77.2%, 51.5%)" stroke-width="1.5"></path><path d="M70.33 515.25L254.39 561.49" stroke="hsl(228.5, 77.2%, 51.5%)" stroke-width="1.5"></path><path d="M70.33 515.25L218.29 644.4" stroke="hsl(228.5, 77.2%, 51.5%)" stroke-width="1.5"></path><path d="M70.33 515.25L-70.33 703.15" stroke="hsl(228.5, 77.2%, 51.5%)" stroke-width="1.5"></path><path d="M70.33 515.25L384.58 494.06" stroke="hsl(228.5, 77.2%, 51.5%)" stroke-width="1.5"></path><path d="M254.39 561.49L254.39 561.49" stroke="hsl(228.5, 77.2%, 51.5%)" stroke-width="1.5"></path><path d="M254.39 561.49L218.29 644.4" stroke="hsl(228.5, 77.2%, 51.5%)" stroke-width="1.5"></path><path d="M254.39 561.49L384.58 494.06" stroke="hsl(228.5, 77.2%, 51.5%)" stroke-width="1.5"></path><path d="M254.39 561.49L408.08 662.99" stroke="hsl(228.5, 77.2%, 51.5%)" stroke-width="1.5"></path><path d="M218.29 644.4L218.29 644.4" stroke="hsl(228.5, 77.2%, 51.5%)" stroke-width="1.5"></path><path d="M384.58 494.06L384.58 494.06" stroke="hsl(228.5, 77.2%, 51.5%)" stroke-width="1.5"></path><path d="M384.58 494.06L514.26 559.08" stroke="hsl(228.5, 77.2%, 51.5%)" stroke-width="1.5"></path><path d="M384.58 494.06L408.08 662.99" stroke="hsl(228.5, 77.2%, 51.5%)" stroke-width="1.5"></path><path d="M408.08 662.99L408.08 662.99" stroke="hsl(228.5, 77.2%, 51.5%)" stroke-width="1.5"></path><path d="M408.08 662.99L514.26 559.08" stroke="hsl(228.5, 77.2%, 51.5%)" stroke-width="1.5"></path><path d="M514.26 559.08L514.26 559.08" stroke="hsl(228.5, 77.2%, 51.5%)" stroke-width="1.5"></path><path d="M514.26 559.08L652.52 526.63" stroke="hsl(228.5, 77.2%, 51.5%)" stroke-width="1.5"></path><path d="M514.26 559.08L647.8 669.43" stroke="hsl(228.5, 77.2%, 51.5%)" stroke-width="1.5"></path><path d="M514.26 559.08L684.02 406.94" stroke="hsl(228.5, 77.2%, 51.5%)" stroke-width="1.5"></path><path d="M652.52 526.63L652.52 526.63" stroke="hsl(228.5, 77.2%, 51.5%)" stroke-width="1.5"></path><path d="M652.52 526.63L647.8 669.43" stroke="hsl(228.5, 77.2%, 51.5%)" stroke-width="1.5"></path><path d="M652.52 526.63L799.95 544.64" stroke="hsl(228.5, 77.2%, 51.5%)" stroke-width="1.5"></path><path d="M652.52 526.63L835.76 660.88" stroke="hsl(228.5, 77.2%, 51.5%)" stroke-width="1.5"></path><path d="M652.52 526.63L801.21 338.56" stroke="hsl(228.5, 77.2%, 51.5%)" stroke-width="1.5"></path><path d="M647.8 669.43L647.8 669.43" stroke="hsl(228.5, 77.2%, 51.5%)" stroke-width="1.5"></path><path d="M647.8 669.43L835.76 660.88" stroke="hsl(228.5, 77.2%, 51.5%)" stroke-width="1.5"></path><path d="M647.8 669.43L799.95 544.64" stroke="hsl(228.5, 77.2%, 51.5%)" stroke-width="1.5"></path><path d="M647.8 669.43L408.08 662.99" stroke="hsl(228.5, 77.2%, 51.5%)" stroke-width="1.5"></path><path d="M647.8 669.43L684.02 406.94" stroke="hsl(228.5, 77.2%, 51.5%)" stroke-width="1.5"></path><path d="M801.21 338.56L801.21 338.56" stroke="hsl(228.5, 77.2%, 51.5%)" stroke-width="1.5"></path><path d="M801.21 338.56L799.95 544.64" stroke="hsl(228.5, 77.2%, 51.5%)" stroke-width="1.5"></path><path d="M801.21 338.56L988.83 510.22" stroke="hsl(228.5, 77.2%, 51.5%)" stroke-width="1.5"></path><path d="M801.21 338.56L835.76 660.88" stroke="hsl(228.5, 77.2%, 51.5%)" stroke-width="1.5"></path><path d="M801.21 338.56L1089.44 519.88" stroke="hsl(228.5, 77.2%, 51.5%)" stroke-width="1.5"></path><path d="M799.95 544.64L799.95 544.64" stroke="hsl(228.5, 77.2%, 51.5%)" stroke-width="1.5"></path><path d="M799.95 544.64L835.76 660.88" stroke="hsl(228.5, 77.2%, 51.5%)" stroke-width="1.5"></path><path d="M835.76 660.88L835.76 660.88" stroke="hsl(228.5, 77.2%, 51.5%)" stroke-width="1.5"></path><path d="M1147.79 364.09L1147.79 364.09" stroke="hsl(228.5, 77.2%, 51.5%)" stroke-width="1.5"></path><path d="M1147.79 364.09L1089.44 519.88" stroke="hsl(228.5, 77.2%, 51.5%)" stroke-width="1.5"></path><path d="M1147.79 364.09L1312.14 240.57" stroke="hsl(228.5, 77.2%, 51.5%)" stroke-width="1.5"></path><path d="M1147.79 364.09L1307.45 555.68" stroke="hsl(228.5, 77.2%, 51.5%)" stroke-width="1.5"></path><path d="M1089.44 519.88L1089.44 519.88" stroke="hsl(228.5, 77.2%, 51.5%)" stroke-width="1.5"></path><path d="M1123.57 655.12L1123.57 655.12" stroke="hsl(228.5, 77.2%, 51.5%)" stroke-width="1.5"></path><path d="M1123.57 655.12L1089.44 519.88" stroke="hsl(228.5, 77.2%, 51.5%)" stroke-width="1.5"></path><path d="M1242.67 -55.17L1242.67 -55.17" stroke="hsl(228.5, 77.2%, 51.5%)" stroke-width="1.5"></path><path d="M1242.67 -55.17L1300.59 89.33" stroke="hsl(228.5, 77.2%, 51.5%)" stroke-width="1.5"></path><path d="M1242.67 -55.17L1458.93 -91.92" stroke="hsl(228.5, 77.2%, 51.5%)" stroke-width="1.5"></path><path d="M1242.67 -55.17L1312.14 240.57" stroke="hsl(228.5, 77.2%, 51.5%)" stroke-width="1.5"></path><path d="M1300.59 89.33L1300.59 89.33" stroke="hsl(228.5, 77.2%, 51.5%)" stroke-width="1.5"></path><path d="M1300.59 89.33L1312.14 240.57" stroke="hsl(228.5, 77.2%, 51.5%)" stroke-width="1.5"></path><path d="M1312.14 240.57L1312.14 240.57" stroke="hsl(228.5, 77.2%, 51.5%)" stroke-width="1.5"></path><path d="M1312.14 240.57L1388.88 233.88" stroke="hsl(228.5, 77.2%, 51.5%)" stroke-width="1.5"></path><path d="M1312.14 240.57L1414.54 393.28" stroke="hsl(228.5, 77.2%, 51.5%)" stroke-width="1.5"></path><path d="M1307.45 555.68L1307.45 555.68" stroke="hsl(228.5, 77.2%, 51.5%)" stroke-width="1.5"></path><path d="M1307.45 555.68L1414.54 393.28" stroke="hsl(228.5, 77.2%, 51.5%)" stroke-width="1.5"></path><path d="M1307.45 555.68L1123.57 655.12" stroke="hsl(228.5, 77.2%, 51.5%)" stroke-width="1.5"></path><path d="M1458.93 -91.92L1458.93 -91.92" stroke="hsl(228.5, 77.2%, 51.5%)" stroke-width="1.5"></path><path d="M1458.93 -91.92L1548.44 -47.15" stroke="hsl(228.5, 77.2%, 51.5%)" stroke-width="1.5"></path><path d="M1388.88 233.88L1388.88 233.88" stroke="hsl(228.5, 77.2%, 51.5%)" stroke-width="1.5"></path><path d="M1388.88 233.88L1300.59 89.33" stroke="hsl(228.5, 77.2%, 51.5%)" stroke-width="1.5"></path><path d="M1388.88 233.88L1574.1 226.64" stroke="hsl(228.5, 77.2%, 51.5%)" stroke-width="1.5"></path><path d="M1548.44 -47.15L1548.44 -47.15" stroke="hsl(228.5, 77.2%, 51.5%)" stroke-width="1.5"></path><path d="M1548.44 -47.15L1574.1 226.64" stroke="hsl(228.5, 77.2%, 51.5%)" stroke-width="1.5"></path><path d="M1548.44 -47.15L1300.59 89.33" stroke="hsl(228.5, 77.2%, 51.5%)" stroke-width="1.5"></path><path d="M1548.44 -47.15L1242.67 -55.17" stroke="hsl(228.5, 77.2%, 51.5%)" stroke-width="1.5"></path><path d="M1574.1 226.64L1574.1 226.64" stroke="hsl(228.5, 77.2%, 51.5%)" stroke-width="1.5"></path><path d="M1552.53 526.6L1552.53 526.6" stroke="hsl(228.5, 77.2%, 51.5%)" stroke-width="1.5"></path><path d="M1552.53 526.6L1559.29 663.95" stroke="hsl(228.5, 77.2%, 51.5%)" stroke-width="1.5"></path><path d="M1559.29 663.95L1559.29 663.95" stroke="hsl(228.5, 77.2%, 51.5%)" stroke-width="1.5"></path><circle r="25" cx="-70.33" cy="703.15" fill="url(#SvgjsRadialGradient1003)"></circle><circle r="25" cx="95.59" cy="655.12" fill="url(#SvgjsRadialGradient1003)"></circle><circle r="25" cx="684.02" cy="406.94" fill="url(#SvgjsRadialGradient1003)"></circle><circle r="25" cx="988.83" cy="510.22" fill="url(#SvgjsRadialGradient1003)"></circle><circle r="25" cx="949.44" cy="698.46" fill="url(#SvgjsRadialGradient1003)"></circle><circle r="25" cx="1414.54" cy="393.28" fill="url(#SvgjsRadialGradient1003)"></circle><circle r="25" cx="1431.74" cy="526.39" fill="url(#SvgjsRadialGradient1003)"></circle><circle r="25" cx="1436.36" cy="638.93" fill="url(#SvgjsRadialGradient1003)"></circle><circle r="25" cx="1563.58" cy="66.47" fill="url(#SvgjsRadialGradient1003)"></circle><circle r="25" cx="1608.03" cy="408.94" fill="url(#SvgjsRadialGradient1003)"></circle><circle r="5" cx="-91.93" cy="554.23" fill="#8b9ad9"></circle><circle r="5" cx="70.33" cy="515.25" fill="#8b9ad9"></circle><circle r="5" cx="254.39" cy="561.49" fill="#8b9ad9"></circle><circle r="5" cx="218.29" cy="644.4" fill="#8b9ad9"></circle><circle r="5" cx="384.58" cy="494.06" fill="#8b9ad9"></circle><circle r="5" cx="408.08" cy="662.99" fill="#8b9ad9"></circle><circle r="5" cx="514.26" cy="559.08" fill="#8b9ad9"></circle><circle r="5" cx="652.52" cy="526.63" fill="#8b9ad9"></circle><circle r="5" cx="647.8" cy="669.43" fill="#8b9ad9"></circle><circle r="5" cx="801.21" cy="338.56" fill="#8b9ad9"></circle><circle r="5" cx="799.95" cy="544.64" fill="#8b9ad9"></circle><circle r="5" cx="835.76" cy="660.88" fill="#8b9ad9"></circle><circle r="5" cx="1147.79" cy="364.09" fill="#8b9ad9"></circle><circle r="5" cx="1089.44" cy="519.88" fill="#8b9ad9"></circle><circle r="5" cx="1123.57" cy="655.12" fill="#8b9ad9"></circle><circle r="5" cx="1242.67" cy="-55.17" fill="#8b9ad9"></circle><circle r="5" cx="1300.59" cy="89.33" fill="#8b9ad9"></circle><circle r="5" cx="1312.14" cy="240.57" fill="#8b9ad9"></circle><circle r="5" cx="1307.45" cy="555.68" fill="#8b9ad9"></circle><circle r="5" cx="1458.93" cy="-91.92" fill="#8b9ad9"></circle><circle r="5" cx="1388.88" cy="233.88" fill="#8b9ad9"></circle><circle r="5" cx="1548.44" cy="-47.15" fill="#8b9ad9"></circle><circle r="5" cx="1574.1" cy="226.64" fill="#8b9ad9"></circle><circle r="5" cx="1552.53" cy="526.6" fill="#8b9ad9"></circle><circle r="5" cx="1559.29" cy="663.95" fill="#8b9ad9"></circle></g><defs><mask id="SvgjsMask1002"><rect width="1440" height="560" fill="#ffffff"></rect></mask><radialGradient id="SvgjsRadialGradient1003"><stop stop-color="#ffffff" offset="0.1"></stop><stop stop-color="#1735b3" offset="0.2"></stop><stop stop-color="rgba(23, 53, 179, 0)" offset="1"></stop></radialGradient></defs></svg>