<svg xmlns="http://www.w3.org/2000/svg" version="1.1" xmlns:xlink="http://www.w3.org/1999/xlink" xmlns:svgjs="http://svgjs.com/svgjs" width="1440" height="560" preserveAspectRatio="none" viewBox="0 0 1440 560"><g mask="url(&quot;#SvgjsMask1220&quot;)" fill="none"><path d="M463.55959741533684 205.41727602611797L388.33137532317176 105.58605345900017 288.500152756054 180.81427555116522 363.728374848219 280.64549811828306z" fill="rgba(28, 83, 142, 0.4)" class="triangle-float1"></path><path d="M1189.9747848996406 436.2355682600552L1209.8868375130187 494.06436805668113 1286.6740109012685 435.2818892383009z" fill="rgba(28, 83, 142, 0.4)" class="triangle-float1"></path><path d="M1393.415,129.919C1416.368,130.111,1439.363,120.785,1450.702,100.827C1461.926,81.072,1458.438,56.404,1445.976,37.406C1434.661,20.156,1414.02,12.484,1393.415,13.495C1374.578,14.419,1359.301,26.304,1349.087,42.159C1337.705,59.827,1328.284,81.125,1337.76,99.885C1347.947,120.052,1370.822,129.73,1393.415,129.919" fill="rgba(28, 83, 142, 0.4)" class="triangle-float3"></path><path d="M1278.9775037313873 252.53572402437004L1347.1436693716294 188.9697462006855 1217.7116198159815 118.50348665216464z" fill="rgba(28, 83, 142, 0.4)" class="triangle-float3"></path><path d="M752.116,271.609C793.683,268.736,821.322,232.765,840.898,195.984C859.009,161.956,867.043,122.817,849.605,88.44C830.442,50.663,794.467,20.157,752.116,20.961C710.793,21.745,682.034,56.546,660.832,92.023C638.861,128.786,619.777,171.749,639.183,209.928C660.014,250.911,706.252,274.779,752.116,271.609" fill="rgba(28, 83, 142, 0.4)" class="triangle-float3"></path><path d="M1049.0573220310393 413.1631327322999L937.5111149490147 449.40669245332424 973.754674670039 560.9528995353489 1085.3008817520638 524.7093398143246z" fill="rgba(28, 83, 142, 0.4)" class="triangle-float2"></path><path d="M1247.009,321.558C1287.084,320.135,1326.818,306.052,1347.596,271.755C1369.089,236.278,1367.532,191.984,1347.518,155.652C1326.744,117.939,1290.063,88.774,1247.009,89.154C1204.498,89.529,1171.35,120.915,1149.528,157.4C1126.962,195.127,1110.792,241.568,1133.238,279.367C1155.372,316.641,1203.685,323.096,1247.009,321.558" fill="rgba(28, 83, 142, 0.4)" class="triangle-float1"></path><path d="M101.55 339.14 a99.61 99.61 0 1 0 199.22 0 a99.61 99.61 0 1 0 -199.22 0z" fill="rgba(28, 83, 142, 0.4)" class="triangle-float2"></path><path d="M565.296419415864 428.85432220439105L404.933968345652 477.88204365046806 614.3241408619409 589.216773274603z" fill="rgba(28, 83, 142, 0.4)" class="triangle-float1"></path><path d="M1357.4059203762192 442.0794833215896L1301.443240058328 466.9956739058662 1366.7988660936885 538.4815990905647z" fill="rgba(28, 83, 142, 0.4)" class="triangle-float3"></path></g><defs><mask id="SvgjsMask1220"><rect width="1440" height="560" fill="#ffffff"></rect></mask><style>
            @keyframes float1 {
                0%{transform: translate(0, 0)}
                50%{transform: translate(-10px, 0)}
                100%{transform: translate(0, 0)}
            }

            .triangle-float1 {
                animation: float1 5s infinite;
            }

            @keyframes float2 {
                0%{transform: translate(0, 0)}
                50%{transform: translate(-5px, -5px)}
                100%{transform: translate(0, 0)}
            }

            .triangle-float2 {
                animation: float2 4s infinite;
            }

            @keyframes float3 {
                0%{transform: translate(0, 0)}
                50%{transform: translate(0, -10px)}
                100%{transform: translate(0, 0)}
            }

            .triangle-float3 {
                animation: float3 6s infinite;
            }
        </style></defs></svg>